<svg width="1024" height="1024" viewBox="0 0 1024 1024" version="1.1" xmlns="http://www.w3.org/2000/svg" xmlns:xlink="http://www.w3.org/1999/xlink">
<title>Group</title>
<desc>Created using Figma</desc>
<g id="Canvas">
<g id="Group">
<g id="Subtract">
<use xlink:href="#path0_fill"/>
</g>
<g id="Vector">
<use xlink:href="#path1_fill" transform="matrix(6.12323e-17 1 -1 6.12323e-17 717.373 453.632)"/>
</g>
<g id="Vector">
<use xlink:href="#path2_fill" transform="matrix(6.12323e-17 1 -1 6.12323e-17 778.66 394.24)"/>
</g>
<g id="Vector">
<use xlink:href="#path3_fill" transform="matrix(6.12323e-17 1 -1 6.12323e-17 854.948 307.2)"/>
</g>
</g>
</g>
<defs>
<path id="path0_fill" fill-rule="evenodd" d="M 905.162 839.995C 979.353 751.159 1024 636.793 1024 512C 1024 387.123 979.294 272.688 905.013 183.827L 795.777 293.063C 842.564 353.616 870.4 429.557 870.4 512C 870.4 594.359 842.62 670.229 795.92 730.753L 905.162 839.995ZM 839.995 905.162C 751.159 979.353 636.793 1024 512 1024C 229.23 1024 0 794.77 0 512C 0 229.23 229.23 0 512 0C 636.71 0 751.006 44.5868 839.817 118.689L 730.568 227.938C 670.075 181.323 594.275 153.6 512 153.6C 314.061 153.6 153.6 314.061 153.6 512C 153.6 709.939 314.061 870.4 512 870.4C 594.359 870.4 670.229 842.62 730.753 795.92L 839.995 905.162Z"/>
<path id="path1_fill" d="M 93.3353 6.9754C 82.3997 2.34014 70.834 2.74674e-06 58.8634 2.74674e-06C 46.8927 2.74674e-06 35.282 2.34014 24.3914 6.9754C 15.4359 10.7556 7.24541 15.9309 -1.37337e-06 22.4113L 24.3014 49.7278C 33.9319 42.4824 45.9026 38.2072 58.8634 38.2072C 71.8241 38.2072 83.7948 42.4824 93.4253 49.7278L 117.727 22.4113C 110.481 15.9759 102.291 10.7556 93.3353 6.9754Z"/>
<path id="path2_fill" d="M 187.021 14.0401C 164.941 4.68002 141.481 0 117.3 0C 93.1204 0 69.6603 4.74002 47.5802 14.0401C 30.1801 21.4201 14.2201 31.3801 0 43.7402L 32.4601 80.2803C 55.0202 60.2402 84.7203 48.0002 117.3 48.0002C 149.881 48.0002 179.581 60.1802 202.141 80.2803L 234.601 43.8002C 220.381 31.3801 204.421 21.4201 187.021 14.0401Z"/>
<path id="path3_fill" d="M 204.8 1.2207e-06C 126.4 1.2207e-06 54.72 29.04 0 76.88L 39.92 121.76C 84.08 83.44 141.76 60.16 204.8 60.16C 267.92 60.16 325.52 83.36 369.68 121.76L 409.6 76.88C 354.8 28.96 283.2 1.2207e-06 204.8 1.2207e-06Z"/>
</defs>
</svg>
